<svg data-v-423bf9ae="" xmlns="http://www.w3.org/2000/svg" viewBox="0 0 326.32613187460515 60" class="font"><!----><!----><defs data-v-423bf9ae=""><linearGradient data-v-423bf9ae="" gradientTransform="rotate(25)" id="4cc4df7c-47ea-4366-8601-f76f20e13914" x1="0%" y1="0%" x2="100%" y2="0%"><stop data-v-423bf9ae="" offset="0%" style="stop-color: rgb(65, 226, 150); stop-opacity: 1;"></stop><stop data-v-423bf9ae="" offset="100%" style="stop-color: rgb(0, 196, 238); stop-opacity: 1;"></stop></linearGradient></defs><g data-v-423bf9ae="" id="733e2c47-0b8c-4fb1-a407-7f14725b477b" fill="url(#4cc4df7c-47ea-4366-8601-f76f20e13914)" transform="matrix(3.9292729666877264,0,0,3.9292729666877264,-3.3398834536311313,-8.762278313821405)"><path d="M4.17 11.27L4.17 11.27L4.17 11.27Q4.31 11.45 4.31 11.77L4.31 11.77L4.31 11.77Q4.31 12.09 4.11 12.37L4.11 12.37L4.11 12.37Q3.91 12.65 3.60 12.85L3.60 12.85L3.60 12.85Q2.95 13.27 2.14 13.27L2.14 13.27L2.14 13.27Q1.35 13.27 1.03 12.87L1.03 12.87L1.03 12.87Q0.85 12.64 0.85 12.33L0.85 12.33L0.85 12.33Q0.85 11.72 1.47 11.25L1.47 11.25L1.47 11.25Q2.09 10.78 2.96 10.78L2.96 10.78L2.96 10.78Q3.82 10.78 4.17 11.27ZM8.65 12.87L8.65 12.87Q8.39 12.63 8.26 12.31L8.26 12.31L8.26 12.31Q8.13 12.00 8.13 11.77L8.13 11.77L8.13 11.77Q8.13 11.55 8.26 11.23L8.26 11.23L8.26 11.23Q8.38 10.92 8.59 10.50L8.59 10.50L8.59 10.50Q8.80 10.09 9.08 9.60L9.08 9.60L9.08 9.60Q9.37 9.11 9.69 8.61L9.69 8.61L10.33 7.62L10.33 7.62Q10.66 7.14 10.99 6.72L10.99 6.72L10.99 6.72Q9.62 7.16 8.96 7.57L8.96 7.57L8.96 7.57Q8.30 7.98 7.94 8.18L7.94 8.18L7.94 8.18Q7.59 8.37 7.36 8.37L7.36 8.37L7.36 8.37Q6.97 8.37 6.97 7.89L6.97 7.89L6.97 7.89Q6.97 7.21 7.68 6.21L7.68 6.21L7.68 6.21Q8.42 5.17 9.21 4.93L9.21 4.93L9.21 4.93Q10.00 4.68 10.98 4.46L10.98 4.46L10.98 4.46Q11.95 4.24 13.00 4.07L13.00 4.07L13.00 4.07Q15.29 3.72 17.25 3.72L17.25 3.72L17.25 3.72Q19.49 3.72 20.11 4.14L20.11 4.14L20.11 4.14Q20.67 4.52 20.86 5.18L20.86 5.18L20.86 5.18Q20.96 5.50 20.96 5.87L20.96 5.87L20.96 5.87Q20.96 6.24 20.60 6.64L20.60 6.64L20.60 6.64Q20.24 7.04 19.65 7.40L19.65 7.40L19.65 7.40Q18.53 8.08 16.71 8.63L16.71 8.63L16.71 8.63Q17.74 8.83 18.14 9.08L18.14 9.08L18.14 9.08Q18.54 9.34 18.70 9.59L18.70 9.59L18.70 9.59Q18.87 9.85 18.87 10.24L18.87 10.24L18.87 10.24Q18.87 10.64 18.53 11.05L18.53 11.05L18.53 11.05Q18.18 11.47 17.58 11.83L17.58 11.83L17.58 11.83Q16.97 12.20 16.15 12.49L16.15 12.49L16.15 12.49Q15.33 12.78 14.36 12.99L14.36 12.99L14.36 12.99Q12.35 13.43 10.18 13.43L10.18 13.43L10.18 13.43Q9.24 13.43 8.65 12.87L8.65 12.87ZM13.00 6.85L12.46 7.74L12.46 7.74Q11.44 9.52 11.44 10.20L11.44 10.20L11.44 10.20Q11.44 10.51 11.76 10.79L11.76 10.79L11.76 10.79Q12.07 11.05 12.41 11.05L12.41 11.05L12.41 11.05Q12.74 11.05 13.15 11.02L13.15 11.02L13.15 11.02Q13.55 10.99 13.97 10.93L13.97 10.93L13.97 10.93Q14.40 10.88 14.81 10.80L14.81 10.80L14.81 10.80Q15.22 10.73 15.54 10.63L15.54 10.63L15.54 10.63Q16.25 10.42 16.25 10.20L16.25 10.20L16.25 10.20Q16.25 9.80 15.15 9.54L15.15 9.54L15.15 9.54Q14.25 9.34 13.44 9.34L13.44 9.34L13.44 9.34Q13.13 9.34 12.99 9.21L12.99 9.21L12.99 9.21Q12.85 9.08 12.85 8.92L12.85 8.92L12.85 8.92Q12.85 8.75 13.02 8.57L13.02 8.57L13.02 8.57Q13.19 8.39 13.47 8.27L13.47 8.27L13.47 8.27Q15.80 7.69 17.36 6.97L17.36 6.97L17.36 6.97Q18.12 6.61 18.12 6.43L18.12 6.43L18.12 6.43Q18.12 6.16 17.96 6.00L17.96 6.00L17.96 6.00Q17.68 5.70 17.34 5.70L17.34 5.70L17.34 5.70Q17.00 5.70 16.56 5.73L16.56 5.73L16.56 5.73Q16.13 5.76 15.62 5.81L15.62 5.81L15.62 5.81Q14.51 5.92 13.41 6.13L13.41 6.13L13.41 6.13Q13.25 6.45 13.00 6.85L13.00 6.85ZM29.01 8.27L29.01 8.27L29.01 8.27Q29.45 8.27 29.45 8.63L29.45 8.63L29.45 8.63Q29.45 9.08 28.92 9.69L28.92 9.69L28.92 9.69Q28.03 10.72 26.84 11.69L26.84 11.69L26.84 11.69Q24.89 13.25 23.36 13.25L23.36 13.25L23.36 13.25Q22.26 13.25 21.55 12.29L21.55 12.29L21.55 12.29Q20.82 11.29 20.82 9.61L20.82 9.61L20.82 9.61Q20.82 7.40 22.98 4.73L22.98 4.73L22.98 4.73Q24.34 3.03 25.55 2.42L25.55 2.42L25.55 2.42Q25.93 2.23 26.13 2.23L26.13 2.23L26.13 2.23Q26.33 2.23 26.50 2.29L26.50 2.29L26.50 2.29Q26.67 2.36 26.81 2.47L26.81 2.47L26.81 2.47Q27.15 2.75 27.15 3.15L27.15 3.15L27.15 3.15Q27.15 3.55 26.93 4.09L26.93 4.09L26.93 4.09Q26.71 4.63 26.29 5.25L26.29 5.25L26.29 5.25Q25.41 6.56 23.91 7.75L23.91 7.75L23.91 7.75Q23.52 8.50 23.52 9.54L23.52 9.54L23.52 9.54Q23.52 10.01 23.82 10.43L23.82 10.43L23.82 10.43Q24.12 10.85 24.49 10.85L24.49 10.85L24.49 10.85Q25.00 10.85 26.43 9.80L26.43 9.80L27.64 8.87L27.64 8.87Q28.39 8.27 29.01 8.27ZM35.16 8.89L35.16 8.89L35.16 8.89Q35.16 9.26 35.79 9.26L35.79 9.26L35.79 9.26Q36.25 9.26 37.00 8.80L37.00 8.80L37.55 8.50L37.55 8.50Q37.80 8.36 37.99 8.36L37.99 8.36L37.99 8.36Q38.18 8.36 38.29 8.48L38.29 8.48L38.29 8.48Q38.40 8.59 38.40 8.80L38.40 8.80L38.40 8.80Q38.40 9.00 38.26 9.27L38.26 9.27L38.26 9.27Q38.12 9.54 37.88 9.84L37.88 9.84L37.88 9.84Q37.65 10.14 37.32 10.43L37.32 10.43L37.32 10.43Q37.00 10.72 36.63 10.95L36.63 10.95L36.63 10.95Q35.81 11.46 35.11 11.46L35.11 11.46L35.11 11.46Q34.36 11.46 33.92 11.21L33.92 11.21L33.92 11.21Q33.78 11.13 33.65 11.04L33.65 11.04L33.65 11.04Q32.92 11.87 31.53 12.57L31.53 12.57L31.53 12.57Q30.06 13.31 28.96 13.31L28.96 13.31L28.96 13.31Q27.80 13.31 27.13 12.40L27.13 12.40L27.13 12.40Q26.59 11.66 26.59 10.90L26.59 10.90L26.59 10.90Q26.59 9.81 27.76 8.82L27.76 8.82L27.76 8.82Q28.62 8.09 29.43 7.72L29.43 7.72L29.43 7.72Q30.23 7.34 30.88 7.14L30.88 7.14L30.88 7.14Q32.25 6.71 33.35 6.71L33.35 6.71L33.35 6.71Q33.84 6.71 34.23 6.89L34.23 6.89L34.23 6.89Q34.62 7.08 34.80 7.27L34.80 7.27L34.80 7.27Q35.24 7.70 35.24 8.37L35.24 8.37L35.24 8.37Q35.24 8.57 35.20 8.68L35.20 8.68L35.20 8.68Q35.16 8.79 35.16 8.89ZM29.57 10.18L29.57 10.18L29.56 10.20L29.56 10.21L29.56 10.21Q29.56 10.50 29.69 10.59L29.69 10.59L29.69 10.59Q30.00 10.78 30.35 10.69L30.35 10.69L30.35 10.69Q30.70 10.60 31.01 10.46L31.01 10.46L31.01 10.46Q31.79 10.12 32.42 9.61L32.42 9.61L32.42 9.61Q32.31 9.39 32.31 9.16L32.31 9.16L32.31 9.16Q32.31 8.67 32.74 8.18L32.74 8.18L32.74 8.18Q32.20 8.18 31.27 8.69L31.27 8.69L31.27 8.69Q30.24 9.26 29.73 9.86L29.73 9.86L29.73 9.86Q29.57 10.06 29.57 10.18ZM41.13 8.54L41.13 8.54L41.13 8.54Q40.67 8.79 40.25 9.08L40.25 9.08L40.25 9.08Q39.83 9.38 39.51 9.69L39.51 9.69L39.51 9.69Q39.19 9.99 39.19 10.22L39.19 10.22L39.19 10.22Q39.19 10.45 39.55 10.45L39.55 10.45L39.55 10.45Q39.81 10.45 40.29 10.20L40.29 10.20L41.77 9.41L41.77 9.41Q42.18 9.20 42.51 8.91L42.51 8.91L42.99 8.49L42.99 8.49Q43.51 8.02 44.08 8.02L44.08 8.02L44.08 8.02Q44.37 8.02 44.67 8.35L44.67 8.35L44.67 8.35Q44.96 8.67 44.96 9.02L44.96 9.02L44.96 9.02Q44.96 9.80 44.32 11.34L44.32 11.34L45.41 10.45L47.67 8.69L47.67 8.69Q48.03 8.42 48.27 8.42L48.27 8.42L48.27 8.42Q48.79 8.42 48.79 8.91L48.79 8.91L48.79 8.91Q48.79 9.43 48.12 10.23L48.12 10.23L48.12 10.23Q47.80 10.62 47.24 11.06L47.24 11.06L43.46 13.93L43.46 13.93Q43.08 14.23 42.86 14.43L42.86 14.43L42.86 14.43Q41.96 15.89 41.13 16.54L41.13 16.54L41.13 16.54Q39.92 17.50 38.88 17.50L38.88 17.50L38.88 17.50Q38.42 17.50 38.12 17.24L38.12 17.24L38.12 17.24Q37.86 17.01 37.86 16.71L37.86 16.71L37.86 16.71Q37.86 16.43 38.01 16.11L38.01 16.11L38.01 16.11Q38.16 15.78 38.41 15.46L38.41 15.46L38.41 15.46Q38.66 15.13 38.99 14.81L38.99 14.81L38.99 14.81Q39.31 14.49 39.67 14.18L39.67 14.18L39.67 14.18Q40.63 13.43 41.03 13.14L41.03 13.14L41.70 12.65L41.70 12.65Q42.10 11.81 42.38 10.83L42.38 10.83L42.38 10.83Q41.06 12.00 39.57 12.66L39.57 12.66L39.57 12.66Q38.83 13.00 38.34 13.00L38.34 13.00L38.34 13.00Q37.84 13.00 37.43 12.79L37.43 12.79L37.43 12.79Q37.02 12.58 36.73 12.25L36.73 12.25L36.73 12.25Q36.12 11.55 36.12 10.62L36.12 10.62L36.12 10.62Q36.12 9.65 36.85 8.98L36.85 8.98L36.85 8.98Q37.95 7.98 39.97 7.25L39.97 7.25L39.97 7.25Q41.91 6.53 43.26 6.53L43.26 6.53L43.26 6.53Q43.70 6.53 43.70 6.97L43.70 6.97L43.70 6.97Q43.70 7.27 43.59 7.43L43.59 7.43L43.59 7.43Q43.48 7.59 43.05 7.74L43.05 7.74L43.05 7.74Q42.62 7.89 42.11 8.09L42.11 8.09L42.11 8.09Q41.59 8.30 41.13 8.54ZM49.42 13.56L49.42 13.56L49.42 13.56Q49.07 13.56 48.75 13.39L48.75 13.39L48.75 13.39Q48.43 13.22 48.17 12.91L48.17 12.91L48.17 12.91Q47.59 12.21 47.59 11.22L47.59 11.22L47.59 11.22Q47.59 10.82 47.91 10.41L47.91 10.41L47.91 10.41Q48.23 10.01 48.95 9.68L48.95 9.68L48.95 9.68Q50.58 8.95 53.70 8.95L53.70 8.95L53.70 8.95Q53.70 8.95 59.42 4.51L59.42 4.51L59.42 4.51Q59.71 4.29 59.77 4.24L59.77 4.24L59.77 4.24Q59.86 4.14 60.00 4.14L60.00 4.14L60.00 4.14Q60.14 4.14 60.27 4.17L60.27 4.17L60.27 4.17Q60.40 4.20 60.51 4.25L60.51 4.25L60.51 4.25Q60.75 4.35 60.75 4.48L60.75 4.48L60.75 4.48Q60.75 4.58 60.70 4.63L60.70 4.63L56.79 8.93L58.46 8.93L58.46 8.93Q58.57 8.68 58.82 8.24L58.82 8.24L59.45 7.22L59.45 7.22Q59.82 6.63 60.18 6.11L60.18 6.11L60.87 5.15L60.87 5.15Q61.93 3.74 62.40 3.74L62.40 3.74L62.40 3.74Q62.45 3.74 62.77 3.87L62.77 3.87L62.77 3.87Q63.10 3.99 63.32 4.12L63.32 4.12L63.32 4.12Q63.87 4.40 63.87 4.66L63.87 4.66L63.87 4.66Q63.87 4.89 63.66 5.16L63.66 5.16L63.66 5.16Q63.44 5.42 63.21 5.78L63.21 5.78L63.21 5.78Q62.97 6.13 62.70 6.58L62.70 6.58L62.70 6.58Q62.43 7.03 62.16 7.53L62.16 7.53L62.16 7.53Q61.89 8.03 61.67 8.50L61.67 8.50L61.67 8.50Q61.17 9.58 61.17 9.96L61.17 9.96L61.17 9.96Q61.17 10.34 61.23 10.51L61.23 10.51L61.23 10.51Q61.28 10.68 61.37 10.76L61.37 10.76L61.37 10.76Q61.50 10.89 61.78 10.89L61.78 10.89L61.78 10.89Q62.07 10.89 62.37 10.78L62.37 10.78L62.37 10.78Q62.67 10.68 62.95 10.52L62.95 10.52L62.95 10.52Q63.23 10.36 63.51 10.17L63.51 10.17L63.51 10.17Q63.78 9.98 64.04 9.82L64.04 9.82L64.04 9.82Q64.64 9.45 64.93 9.45L64.93 9.45L64.93 9.45Q65.21 9.45 65.31 9.58L65.31 9.58L65.31 9.58Q65.41 9.71 65.41 9.93L65.41 9.93L65.41 9.93Q65.41 10.14 65.24 10.50L65.24 10.50L65.24 10.50Q65.06 10.86 64.74 11.24L64.74 11.24L64.74 11.24Q64.42 11.62 63.98 11.99L63.98 11.99L63.98 11.99Q63.54 12.37 63.02 12.66L63.02 12.66L63.02 12.66Q61.85 13.31 60.73 13.31L60.73 13.31L60.73 13.31Q59.72 13.31 58.95 12.60L58.95 12.60L58.95 12.60Q58.08 11.81 58.08 10.57L58.08 10.57L58.08 10.57Q58.08 10.51 58.08 10.45L58.08 10.45L58.08 10.45Q58.08 10.38 58.09 10.32L58.09 10.32L55.23 10.68L55.23 10.68Q54.02 11.87 52.30 12.71L52.30 12.71L52.30 12.71Q50.58 13.56 49.42 13.56ZM67.49 11.39L67.49 11.39L67.49 11.39Q67.72 11.29 68.12 11.09L68.12 11.09L68.12 11.09Q70.59 9.82 70.83 9.69L70.83 9.69L71.11 9.54L71.11 9.54Q71.56 9.25 71.52 9.08L71.52 9.08L71.52 9.08Q71.45 8.74 71.15 8.80L71.15 8.80L71.15 8.80Q70.85 8.87 70.52 8.98L70.52 8.98L70.52 8.98Q70.20 9.08 69.84 9.24L69.84 9.24L69.84 9.24Q69.08 9.56 68.50 9.87L68.50 9.87L68.50 9.87Q66.49 11.03 66.08 11.27L66.08 11.27L66.08 11.27Q65.79 11.94 65.56 12.59L65.56 12.59L64.73 14.93L64.73 14.93Q64.34 16.02 63.94 16.40L63.94 16.40L63.94 16.40Q63.73 16.61 63.47 16.61L63.47 16.61L63.47 16.61Q62.83 16.61 62.46 16.16L62.46 16.16L62.46 16.16Q62.09 15.72 62.09 15.03L62.09 15.03L62.09 15.03Q62.09 14.34 62.27 13.68L62.27 13.68L62.27 13.68Q62.45 13.01 62.76 12.33L62.76 12.33L62.76 12.33Q63.40 10.94 64.46 9.75L64.46 9.75L64.46 9.75Q65.11 8.00 66.62 6.36L66.62 6.36L66.62 6.36Q67.55 5.37 68.34 4.96L68.34 4.96L68.34 4.96Q68.74 4.75 69.02 4.75L69.02 4.75L69.02 4.75Q69.30 4.75 69.44 4.88L69.44 4.88L69.44 4.88Q69.58 5.00 69.58 5.19L69.58 5.19L69.58 5.19Q69.58 5.38 69.47 5.67L69.47 5.67L69.47 5.67Q69.35 5.95 69.15 6.31L69.15 6.31L69.15 6.31Q68.95 6.67 68.69 7.07L68.69 7.07L68.12 7.90L68.12 7.90Q68.05 8.00 68.05 8.08L68.05 8.08L68.05 8.08Q68.05 8.21 68.21 8.21L68.21 8.21L68.21 8.21Q68.39 8.21 68.87 7.98L68.87 7.98L69.96 7.48L69.96 7.48Q71.39 6.83 72.71 6.83L72.71 6.83L72.71 6.83Q73.39 6.83 73.99 7.48L73.99 7.48L73.99 7.48Q74.60 8.13 74.60 8.89L74.60 8.89L74.60 8.89Q74.60 10.05 73.65 10.68L73.65 10.68L72.80 11.24L72.80 11.24Q72.34 11.53 71.86 11.81L71.86 11.81L70.88 12.35L70.88 12.35Q69.21 13.21 68.31 13.21L68.31 13.21L68.31 13.21Q67.40 13.21 66.99 12.98L66.99 12.98L66.99 12.98Q66.58 12.76 66.58 12.35L66.58 12.35L66.58 12.35Q66.58 11.79 67.49 11.39ZM76.79 11.39L76.79 11.39L76.79 11.39Q77.01 11.29 77.42 11.09L77.42 11.09L77.42 11.09Q79.88 9.82 80.12 9.69L80.12 9.69L80.41 9.54L80.41 9.54Q80.86 9.25 80.82 9.08L80.82 9.08L80.82 9.08Q80.75 8.74 80.45 8.80L80.45 8.80L80.45 8.80Q80.14 8.87 79.82 8.98L79.82 8.98L79.82 8.98Q79.50 9.08 79.13 9.24L79.13 9.24L79.13 9.24Q78.37 9.56 77.80 9.87L77.80 9.87L77.80 9.87Q75.79 11.03 75.38 11.27L75.38 11.27L75.38 11.27Q75.09 11.94 74.85 12.59L74.85 12.59L74.03 14.93L74.03 14.93Q73.64 16.02 73.24 16.40L73.24 16.40L73.24 16.40Q73.03 16.61 72.77 16.61L72.77 16.61L72.77 16.61Q72.13 16.61 71.76 16.16L71.76 16.16L71.76 16.16Q71.39 15.72 71.39 15.03L71.39 15.03L71.39 15.03Q71.39 14.34 71.57 13.68L71.57 13.68L71.57 13.68Q71.74 13.01 72.06 12.33L72.06 12.33L72.06 12.33Q72.69 10.94 73.76 9.75L73.76 9.75L73.76 9.75Q74.41 8.00 75.92 6.36L75.92 6.36L75.92 6.36Q76.84 5.37 77.64 4.96L77.64 4.96L77.64 4.96Q78.03 4.75 78.31 4.75L78.31 4.75L78.31 4.75Q78.59 4.75 78.74 4.88L78.74 4.88L78.74 4.88Q78.88 5.00 78.88 5.19L78.88 5.19L78.88 5.19Q78.88 5.38 78.76 5.67L78.76 5.67L78.76 5.67Q78.65 5.95 78.45 6.31L78.45 6.31L78.45 6.31Q78.25 6.67 77.98 7.07L77.98 7.07L77.42 7.90L77.42 7.90Q77.35 8.00 77.35 8.08L77.35 8.08L77.35 8.08Q77.35 8.21 77.51 8.21L77.51 8.21L77.51 8.21Q77.68 8.21 78.16 7.98L78.16 7.98L79.26 7.48L79.26 7.48Q80.69 6.83 82.00 6.83L82.00 6.83L82.00 6.83Q82.69 6.83 83.29 7.48L83.29 7.48L83.29 7.48Q83.90 8.13 83.90 8.89L83.90 8.89L83.90 8.89Q83.90 10.05 82.95 10.68L82.95 10.68L82.10 11.24L82.10 11.24Q81.64 11.53 81.16 11.81L81.16 11.81L80.17 12.35L80.17 12.35Q78.51 13.21 77.60 13.21L77.60 13.21L77.60 13.21Q76.70 13.21 76.29 12.98L76.29 12.98L76.29 12.98Q75.88 12.76 75.88 12.35L75.88 12.35L75.88 12.35Q75.88 11.79 76.79 11.39Z"></path></g><!----><!----></svg>