<svg data-v-423bf9ae="" xmlns="http://www.w3.org/2000/svg" viewBox="0 0 265.5397175259318 60" class="font"><!----><!----><defs data-v-423bf9ae=""><linearGradient data-v-423bf9ae="" gradientTransform="rotate(25)" id="429f5344-d845-4bbd-9819-064bfc52b7a6" x1="0%" y1="0%" x2="100%" y2="0%"><stop data-v-423bf9ae="" offset="0%" style="stop-color: rgb(23, 119, 117); stop-opacity: 1;"></stop><stop data-v-423bf9ae="" offset="100%" style="stop-color: rgb(40, 210, 191); stop-opacity: 1;"></stop></linearGradient></defs><g data-v-423bf9ae="" id="0ac28c30-ac0a-4ce2-9a02-880a34c66917" fill="url(#429f5344-d845-4bbd-9819-064bfc52b7a6)" transform="matrix(6.109979823280842,0,0,6.109979823280842,-6.354375371112951,-11.670061748471603)"><path d="M1.04 11.70L1.04 10.19L2.39 10.19L2.39 10.19Q2.42 10.19 2.42 10.21L2.42 10.21L2.42 11.70L2.42 11.70Q2.42 11.73 2.39 11.73L2.39 11.73L1.07 11.73L1.07 11.73Q1.04 11.73 1.04 11.70L1.04 11.70ZM3.77 1.93L3.77 1.93L6.56 1.93L6.56 1.93Q8.41 1.93 8.91 2.87L8.91 2.87L8.91 2.87Q9.20 3.36 9.20 4.21L9.20 4.21L9.20 4.89L9.20 4.89Q9.20 5.86 8.36 6.45L8.36 6.45L8.36 6.45Q8.65 6.50 9.08 6.89L9.08 6.89L9.30 6.89L9.30 6.89Q9.71 7.31 9.84 7.71L9.84 7.71L9.84 7.71Q9.87 7.85 9.87 7.86L9.87 7.86L10.14 7.86L10.14 8.03L9.25 8.03L9.25 7.86L7.42 7.86L7.42 7.34L5.63 7.34L5.63 10.19L6.75 10.19L6.75 9.99L7.42 9.99L7.42 8.03L9.25 8.03L9.25 9.75L9.45 9.75L9.45 10.84L8.85 10.84L8.85 11.09L9.45 11.09L9.45 11.55L7.14 11.55L7.14 11.73L4.61 11.73L4.61 11.55L4.06 11.55L4.06 10.04L4.81 10.04L4.81 9.64L4.06 9.64L4.06 9.64Q4.04 8.49 4.04 7.93L4.04 7.93L4.04 7.21L3.40 7.21L3.40 7.02L4.04 7.02L4.04 6.64L3.74 6.64L3.74 1.97L3.74 1.97Q3.75 1.93 3.77 1.93ZM5.98 3.59L5.67 3.59L5.67 6.02L6.08 6.02L6.08 6.02Q6.82 6.02 7.05 5.77L7.05 5.77L7.05 5.77Q7.29 5.57 7.29 4.70L7.29 4.70L7.29 4.66L7.29 4.66Q7.29 3.91 7.05 3.76L7.05 3.76L7.05 3.76Q6.90 3.59 5.98 3.59L5.98 3.59ZM4.96 7.02L4.06 7.02L4.06 7.21L4.96 7.21L4.96 7.02ZM3.69 7.69L3.69 7.24L4.03 7.24L4.03 7.31L4.03 7.31Q4.03 7.34 3.99 7.34L3.99 7.34L3.79 7.34L3.79 7.41L3.97 7.41L3.97 7.41Q4.01 7.42 4.01 7.44L4.01 7.44L4.01 7.48L4.01 7.48Q4.01 7.51 3.97 7.51L3.97 7.51L3.79 7.51L3.79 7.59L4.03 7.59L4.03 7.66L4.03 7.66Q4.03 7.69 3.99 7.69L3.99 7.69L3.69 7.69ZM6.50 8.03L6.50 7.86L7.42 7.86L7.42 8.03L6.50 8.03ZM9.52 8.06L9.52 8.06L9.57 8.06L9.57 8.06Q9.60 8.07 9.60 8.09L9.60 8.09L9.60 8.38L9.60 8.38Q9.58 8.53 9.45 8.53L9.45 8.53L9.45 8.53Q9.30 8.50 9.30 8.38L9.30 8.38L9.30 8.36L9.30 8.36Q9.30 8.33 9.33 8.33L9.33 8.33L9.37 8.33L9.37 8.33Q9.40 8.33 9.42 8.43L9.42 8.43L9.48 8.43L9.48 8.09L9.48 8.09Q9.49 8.06 9.52 8.06ZM9.37 8.65L9.37 8.65L9.50 8.65L9.50 8.65Q9.73 8.65 9.73 8.90L9.73 8.90L9.73 8.90Q9.73 9.07 9.52 9.10L9.52 9.10L9.33 9.10L9.33 8.68L9.33 8.68Q9.34 8.65 9.37 8.65ZM9.50 8.75L9.45 8.75L9.45 9.00L9.52 9.00L9.52 9.00Q9.62 9.00 9.62 8.90L9.62 8.90L9.62 8.87L9.62 8.87Q9.62 8.75 9.50 8.75L9.50 8.75ZM9.37 9.24L9.37 9.24L9.62 9.24L9.62 9.24Q9.65 9.24 9.65 9.27L9.65 9.27L9.65 9.34L9.45 9.34L9.45 9.42L9.62 9.42L9.62 9.50L9.45 9.50L9.45 9.65L9.45 9.65Q9.45 9.69 9.42 9.69L9.42 9.69L9.33 9.69L9.33 9.27L9.33 9.27Q9.34 9.24 9.37 9.24ZM7.02 9.57L7.02 9.50L7.38 9.50L7.38 9.58L7.16 9.86L7.39 9.86L7.39 9.92L7.39 9.92Q7.39 9.95 7.36 9.95L7.36 9.95L7.04 9.95L7.04 9.95Q7.01 9.95 7.01 9.92L7.01 9.92L7.01 9.87L7.23 9.60L7.05 9.60L7.05 9.60Q7.02 9.60 7.02 9.57L7.02 9.57ZM5.68 9.86L5.68 9.79L5.70 9.79L5.70 9.79Q6.02 9.88 6.02 9.92L6.02 9.92L6.02 9.95L6.02 9.95Q5.98 10.00 5.70 10.10L5.70 10.10L5.68 10.07L5.68 10.06L5.68 10.06Q5.68 10.01 5.89 9.95L5.89 9.95L5.89 9.95Q5.89 9.92 5.68 9.86L5.68 9.86ZM10.18 8.85L10.18 1.91L12.13 1.91L12.13 5.94L11.74 5.94L11.74 10.10L14.65 10.10L14.65 10.97L14.08 10.97L14.08 11.17L14.65 11.17L14.65 11.73L12.77 11.73L12.77 11.58L10.19 11.58L10.19 11.58Q10.18 11.42 10.18 11.33L10.18 11.33L10.18 9.14L10.67 9.14L10.67 8.85L10.18 8.85ZM14.65 11.17L14.65 10.97L15.36 10.97L15.36 11.17L14.65 11.17ZM19.15 1.95L19.15 1.95L19.15 1.95Q21.25 1.95 21.92 3.42L21.92 3.42L21.92 3.42Q22.29 4.14 22.29 6.19L22.29 6.19L22.29 6.23L21.57 6.23L21.57 6.56L22.29 6.56L22.29 10.10L21.81 10.10L21.81 11.37L20.86 11.37L20.86 11.73L17.54 11.73L17.54 11.37L17.14 11.37L17.14 10.10L16.28 10.10L16.28 9.10L16.79 9.10L16.79 8.57L16.28 8.57L16.28 9.10L15.07 9.10L15.07 8.57L15.99 8.57L15.99 8.57Q15.98 7.38 15.98 6.74L15.98 6.74L15.98 5.91L15.98 5.91Q15.98 3.58 16.76 2.80L16.76 2.80L16.76 2.80Q17.48 1.95 19.15 1.95ZM17.95 5.32L17.95 5.32L17.97 5.32L17.95 5.35L17.95 6.23L17.22 6.23L17.22 6.56L17.95 6.56L17.95 6.56Q17.94 8.67 17.94 9.75L17.94 9.75L17.94 10.10L19.57 10.10L19.57 9.56L20.32 9.56L20.32 9.54L20.32 9.54Q20.32 8.54 20.31 6.75L20.31 6.75L20.31 6.75Q20.31 6.68 20.32 6.38L20.32 6.38L20.32 6.38Q20.32 4.45 20.10 4.01L20.10 4.01L20.10 4.01Q19.87 3.58 19.24 3.58L19.24 3.58L19.00 3.58L19.00 3.58Q18.26 3.58 18.08 4.24L18.08 4.24L18.08 4.24Q18.00 4.56 17.95 5.32ZM22.29 6.56L22.29 6.23L23.47 6.23L23.47 6.56L22.29 6.56ZM26.65 1.96L26.65 1.96L26.67 1.96L26.67 1.96Q28.86 1.96 29.35 3.38L29.35 3.38L29.35 3.38Q29.57 3.91 29.57 4.87L29.57 4.87L27.99 5.09L27.97 5.05L27.97 5.02L27.97 5.02Q27.97 3.86 27.19 3.64L27.19 3.64L27.19 3.64Q26.95 3.58 26.61 3.56L26.61 3.56L26.61 3.56Q25.76 3.56 25.52 4.47L25.52 4.47L25.52 4.47Q25.38 5.07 25.38 5.89L25.38 5.89L25.38 6.66L25.38 6.66Q25.38 7.99 25.41 8.67L25.41 8.67L25.81 8.67L25.81 10.03L27.75 10.03L27.75 7.70L26.52 7.70L26.52 6.45L30.22 6.45L30.22 6.72L29.74 6.72L29.74 8.16L28.75 8.16L28.75 8.62L29.23 8.62L29.23 11.39L23.95 11.39L23.95 9.91L23.34 9.91L23.34 9.78L23.60 9.78L23.60 9.64L23.95 9.64L23.95 9.08L23.02 9.08L23.02 7.90L23.46 7.90L23.46 7.90Q23.45 7.38 23.45 7.31L23.45 7.31L23.45 7.31Q23.45 4.20 23.78 3.56L23.78 3.56L23.78 3.56Q23.88 3.15 24.35 2.67L24.35 2.67L24.35 2.67Q25.04 1.96 26.65 1.96ZM25.31 11.73L25.31 11.54L27.32 11.54L27.32 11.73L25.31 11.73ZM31.32 11.70L31.32 10.19L32.68 10.19L32.68 10.19Q32.70 10.19 32.70 10.21L32.70 10.21L32.70 11.70L32.70 11.70Q32.70 11.73 32.68 11.73L32.68 11.73L31.35 11.73L31.35 11.73Q31.32 11.73 31.32 11.70L31.32 11.70ZM34.25 1.93L34.25 1.93L36.09 1.93L36.09 1.93Q36.12 1.94 36.12 1.97L36.12 1.97L36.12 6.73L36.12 6.73Q36.12 6.76 36.09 6.76L36.09 6.76L35.88 6.76L35.88 11.70L35.88 11.70Q35.88 11.73 35.84 11.73L35.84 11.73L34.25 11.73L34.25 11.73Q34.21 11.73 34.21 11.70L34.21 11.70L34.21 6.64L33.72 6.64L33.72 6.64Q33.69 6.64 33.69 6.61L33.69 6.61L33.69 6.40L33.69 6.40Q33.69 6.36 33.72 6.36L33.72 6.36L34.21 6.36L34.21 1.97L34.21 1.97Q34.22 1.93 34.25 1.93ZM35.17 6.36L34.23 6.36L34.23 6.64L35.17 6.64L35.17 6.36ZM40.18 1.95L40.18 1.95L40.18 1.95Q42.29 1.95 42.95 3.42L42.95 3.42L42.95 3.42Q43.33 4.14 43.33 6.19L43.33 6.19L43.33 6.23L42.60 6.23L42.60 6.56L43.33 6.56L43.33 10.10L42.85 10.10L42.85 11.37L41.90 11.37L41.90 11.73L38.58 11.73L38.58 11.37L38.17 11.37L38.17 10.10L37.32 10.10L37.32 9.10L37.82 9.10L37.82 8.57L37.32 8.57L37.32 9.10L36.11 9.10L36.11 8.57L37.02 8.57L37.02 8.57Q37.01 7.38 37.01 6.74L37.01 6.74L37.01 5.91L37.01 5.91Q37.01 3.58 37.80 2.80L37.80 2.80L37.80 2.80Q38.51 1.95 40.18 1.95ZM38.99 5.32L38.99 5.32L39.01 5.32L38.99 5.35L38.99 6.23L38.25 6.23L38.25 6.56L38.99 6.56L38.99 6.56Q38.97 8.67 38.97 9.75L38.97 9.75L38.97 10.10L40.61 10.10L40.61 9.56L41.36 9.56L41.36 9.54L41.36 9.54Q41.36 8.54 41.34 6.75L41.34 6.75L41.34 6.75Q41.34 6.68 41.36 6.38L41.36 6.38L41.36 6.38Q41.36 4.45 41.13 4.01L41.13 4.01L41.13 4.01Q40.90 3.58 40.28 3.58L40.28 3.58L40.04 3.58L40.04 3.58Q39.29 3.58 39.12 4.24L39.12 4.24L39.12 4.24Q39.03 4.56 38.99 5.32ZM43.33 6.56L43.33 6.23L44.50 6.23L44.50 6.56L43.33 6.56Z"></path></g><!----><!----></svg>